<svg id="Layer_1" data-name="Layer 1" xmlns="http://www.w3.org/2000/svg" xmlns:xlink="http://www.w3.org/1999/xlink" viewBox="0 0 64 64"><defs><style>.cls-1{fill:url(#Degradado_sin_nombre_106);}.cls-2{fill:url(#Degradado_sin_nombre_106-2);}.cls-3,.cls-4,.cls-5{fill:#fff;}.cls-3{opacity:0.12;}.cls-4{opacity:0.2;}</style><linearGradient id="Degradado_sin_nombre_106" x1="12" y1="31.79" x2="51.96" y2="31.79" gradientUnits="userSpaceOnUse"><stop offset="0" stop-color="#031344"/><stop offset="0.44" stop-color="#061c67"/><stop offset="1" stop-color="#0f2f84"/></linearGradient><linearGradient id="Degradado_sin_nombre_106-2" x1="5.5" y1="32" x2="58.5" y2="32" xlink:href="#Degradado_sin_nombre_106"/></defs><circle class="cls-1" cx="31.98" cy="31.79" r="19.98"/><path class="cls-2" d="M32,58.5A26.5,26.5,0,1,1,58.5,32,26.53,26.53,0,0,1,32,58.5ZM32,8.44A23.56,23.56,0,1,0,55.56,32,23.59,23.59,0,0,0,32,8.44Z"/><path class="cls-3" d="M33.78,28V26.47c0-.72,0-.9.93-.9h3V20.24l-.86-.11A28.51,28.51,0,0,0,33.77,20c-3.64,0-6,2.4-6,6.12V28H24.44v5.86h3.35v10h6v-10H37L37.75,28Z"/><path class="cls-4" d="M34.71,25.08h2.55v-4.4l-.43-.06a28.3,28.3,0,0,0-3.06-.16c-3.39,0-5.49,2.16-5.49,5.63v2.36H24.93v4.88h3.35v10h5v-10h3.28l.63-4.88H33.28v-2C33.28,25.51,33.49,25.08,34.71,25.08Z"/><path class="cls-5" d="M36.13,32.83l.5-3.88H32.78V26.47c0-1.12.32-1.89,1.93-1.89h2V21.11a26.82,26.82,0,0,0-3-.15c-3,0-5,1.81-5,5.13V29H25.43v3.88h3.35v10h4v-10Z"/></svg>