<svg id="Layer_1" data-name="Layer 1" xmlns="http://www.w3.org/2000/svg" xmlns:xlink="http://www.w3.org/1999/xlink" viewBox="0 0 64 64"><defs><style>.cls-1{fill:url(#Degradado_sin_nombre_4);}.cls-2{fill:url(#Degradado_sin_nombre_4-2);}.cls-3,.cls-5{fill:#fff;}.cls-3{opacity:0.12;}.cls-4{opacity:0.2;}</style><linearGradient id="Degradado_sin_nombre_4" x1="12" y1="31.79" x2="51.96" y2="31.79" gradientUnits="userSpaceOnUse"><stop offset="0" stop-color="#930b89"/><stop offset="0.56" stop-color="#ea2833"/><stop offset="1" stop-color="#f7933b"/></linearGradient><linearGradient id="Degradado_sin_nombre_4-2" x1="5.5" y1="32" x2="58.5" y2="32" xlink:href="#Degradado_sin_nombre_4"/></defs><circle class="cls-1" cx="31.98" cy="31.79" r="19.98"/><path class="cls-2" d="M32,58.5A26.5,26.5,0,1,1,58.5,32,26.53,26.53,0,0,1,32,58.5ZM32,8.44A23.56,23.56,0,1,0,55.56,32,23.59,23.59,0,0,0,32,8.44Z"/><path class="cls-3" d="M43.71,27.32a8.93,8.93,0,0,0-.56-2.88,6.41,6.41,0,0,0-3.68-3.68,8.93,8.93,0,0,0-2.89-.56c-1.18-.05-1.58-.06-4.42-.06h-.39l0,0c-2.54,0-2.94,0-4,.07a8.65,8.65,0,0,0-2.88.55,6.41,6.41,0,0,0-3.68,3.68,8.66,8.66,0,0,0-.55,2.89c-.06,1.18-.07,1.57-.07,4.42s0,3.28.07,4.43a8.83,8.83,0,0,0,.59,2.84,6.41,6.41,0,0,0,3.68,3.68,8.66,8.66,0,0,0,2.89.55c1.18.06,1.57.07,4.42.07s3.28,0,4.43-.07a8.91,8.91,0,0,0,2.88-.55,6.41,6.41,0,0,0,3.68-3.68,8.93,8.93,0,0,0,.56-2.89c0-1.18.06-1.57.06-4.42S43.77,28.47,43.71,27.32Zm-3.86.14v0c0,1.09.06,1.38.06,4.26s0,3.16-.06,4.26v0a4.82,4.82,0,0,1-.3,1.65,2.64,2.64,0,0,1-1.47,1.48,5,5,0,0,1-1.66.31h0c-1.09,0-1.38.06-4.26.06s-3.16,0-4.25-.06h-.05a4.92,4.92,0,0,1-1.65-.31,2.61,2.61,0,0,1-1.45-1.48,4.92,4.92,0,0,1-.31-1.65v0c-.05-1.09-.06-1.38-.06-4.26s0-3.16.06-4.25v-.05a5,5,0,0,1,.3-1.64,2.62,2.62,0,0,1,1.46-1.46A4.92,4.92,0,0,1,27.82,24h0C28.94,24,29.24,24,32.12,24v0c2.86,0,3.16,0,4.25.06h.05a3.55,3.55,0,0,1,.46,0,2.22,2.22,0,0,0-1.29,2c0,.1,0,.21,0,.31a6.42,6.42,0,1,0,1.88,1.88l.31,0a2.21,2.21,0,0,0,2-1.3A3.87,3.87,0,0,1,39.85,27.46Zm-5.12,4.29a2.61,2.61,0,1,1-2.61-2.61A2.61,2.61,0,0,1,34.73,31.75Z"/><g class="cls-4"><path class="cls-5" d="M43.24,27.35a8.28,8.28,0,0,0-.53-2.74A5.91,5.91,0,0,0,39.3,21.2a8.27,8.27,0,0,0-2.73-.53c-1.12,0-1.46-.06-4.41-.06H32l0,0c-2.72,0-3.1,0-4.21.06a8.28,8.28,0,0,0-2.74.53,5.91,5.91,0,0,0-3.41,3.41A8.27,8.27,0,0,0,21,27.38C21,28.56,21,28.94,21,31.79s0,3.27.06,4.41a8.19,8.19,0,0,0,.57,2.69A5.91,5.91,0,0,0,25,42.3a8.27,8.27,0,0,0,2.73.53c1.18.05,1.56.06,4.41.06s3.27,0,4.4-.06a8.28,8.28,0,0,0,2.74-.53,5.91,5.91,0,0,0,3.41-3.41,8.27,8.27,0,0,0,.53-2.73c0-1.18.06-1.56.06-4.41S43.3,28.48,43.24,27.35Zm-2.86,4.4c0,2.81,0,3.17-.06,4.28v0A5.32,5.32,0,0,1,40,37.87a3.11,3.11,0,0,1-1.75,1.75A5.17,5.17,0,0,1,36.4,40C35.31,40,35,40,32.12,40S29,40,27.84,40h0A5.09,5.09,0,0,1,26,39.62a3.1,3.1,0,0,1-1.73-1.75A5.41,5.41,0,0,1,23.94,36c-.05-1.1-.06-1.39-.06-4.28s0-3.17.06-4.28v0a5.28,5.28,0,0,1,.34-1.81A3.08,3.08,0,0,1,26,23.91a5.41,5.41,0,0,1,1.84-.34c1.09-.05,1.39-.06,4.28-.06v0c2.81,0,3.17,0,4.28.06h0a5.28,5.28,0,0,1,1.81.34A3.06,3.06,0,0,1,40,25.63a5.22,5.22,0,0,1,.34,1.84C40.37,28.56,40.38,28.86,40.38,31.75Z"/><path class="cls-5" d="M32.12,25.81a5.94,5.94,0,1,0,5.94,5.94A6,6,0,0,0,32.12,25.81Zm3.08,5.94a3.08,3.08,0,1,1-3.08-3.08A3.08,3.08,0,0,1,35.2,31.75Z"/><path class="cls-5" d="M37.8,24.32a1.75,1.75,0,1,0,1.75,1.75A1.74,1.74,0,0,0,37.8,24.32Z"/></g><path class="cls-5" d="M32.12,23c2.84,0,3.18,0,4.31.06a6,6,0,0,1,2,.37,3.53,3.53,0,0,1,2,2,5.79,5.79,0,0,1,.37,2c.05,1.12.06,1.46.06,4.3s0,3.19-.06,4.31a5.84,5.84,0,0,1-.37,2,3.55,3.55,0,0,1-2,2,5.77,5.77,0,0,1-2,.36c-1.13.06-1.46.07-4.31.07s-3.18,0-4.31-.07a5.77,5.77,0,0,1-2-.36,3.54,3.54,0,0,1-2-2,5.78,5.78,0,0,1-.37-2c0-1.13-.06-1.47-.06-4.31s0-3.18.06-4.31a5.78,5.78,0,0,1,.37-2,3.52,3.52,0,0,1,2-2,5.78,5.78,0,0,1,2-.37c1.13-.05,1.47-.06,4.31-.06m0-1.92c-2.89,0-3.25,0-4.39.06a7.94,7.94,0,0,0-2.59.5A5.43,5.43,0,0,0,22,24.81a7.89,7.89,0,0,0-.5,2.59c-.05,1.14-.06,1.5-.06,4.39s0,3.25.06,4.39a8,8,0,0,0,.54,2.55,5.43,5.43,0,0,0,3.13,3.13,7.94,7.94,0,0,0,2.59.5c1.14,0,1.5.06,4.39.06s3.25,0,4.39-.06a7.89,7.89,0,0,0,2.59-.5,5.43,5.43,0,0,0,3.13-3.13,7.94,7.94,0,0,0,.5-2.59c0-1.14.06-1.5.06-4.39s0-3.25-.06-4.39a7.89,7.89,0,0,0-.5-2.59,5.43,5.43,0,0,0-3.13-3.13,7.89,7.89,0,0,0-2.59-.5c-1.14-.05-1.5-.06-4.39-.06Z"/><path class="cls-5" d="M32.12,26.28a5.47,5.47,0,1,0,5.47,5.47,5.47,5.47,0,0,0-5.47-5.47Zm0,9a3.55,3.55,0,1,1,3.55-3.55h0A3.55,3.55,0,0,1,32.12,35.3Z"/><path class="cls-5" d="M37.8,24.79a1.28,1.28,0,0,1,0,2.56,1.28,1.28,0,0,1,0-2.56Z"/></svg>