<svg id="Layer_1" data-name="Layer 1" xmlns="http://www.w3.org/2000/svg" xmlns:xlink="http://www.w3.org/1999/xlink" viewBox="0 0 64 64"><defs><style>.cls-1{fill:url(#Degradado_sin_nombre_104);}.cls-2{fill:url(#Degradado_sin_nombre_104-2);}.cls-3,.cls-4{fill:#fff;}.cls-3{opacity:0.2;}</style><linearGradient id="Degradado_sin_nombre_104" x1="12" y1="31.79" x2="51.96" y2="31.79" gradientUnits="userSpaceOnUse"><stop offset="0" stop-color="#1777e1"/><stop offset="0.56" stop-color="#5003cb"/><stop offset="1" stop-color="#690d96"/></linearGradient><linearGradient id="Degradado_sin_nombre_104-2" x1="5.5" y1="32" x2="58.5" y2="32" xlink:href="#Degradado_sin_nombre_104"/></defs><circle class="cls-1" cx="31.98" cy="31.79" r="19.98"/><path class="cls-2" d="M32,58.5A26.5,26.5,0,1,1,58.5,32,26.53,26.53,0,0,1,32,58.5ZM32,8.44A23.56,23.56,0,1,0,55.56,32,23.59,23.59,0,0,0,32,8.44Z"/><rect class="cls-3" x="21.33" y="26.03" width="6.12" height="15.46"/><path class="cls-3" d="M24.39,26.36a3.45,3.45,0,1,1,3.44-3.45A3.46,3.46,0,0,1,24.39,26.36Z"/><path class="cls-3" d="M36.94,41.49V33a1.38,1.38,0,0,0-1.32-1.4,1.35,1.35,0,0,0-1.36,1.35v8.59H28.14V25.81h6.12v.48a3.63,3.63,0,0,1,.86-.33,7.35,7.35,0,0,1,1.75-.21c3,0,6.19,2,6.19,5.59V41.49Z"/><rect class="cls-3" x="21.9" y="26.6" width="4.98" height="14.33"/><path class="cls-3" d="M24.39,25.79a2.88,2.88,0,1,1,2.87-2.88A2.88,2.88,0,0,1,24.39,25.79Z"/><path class="cls-3" d="M37.5,40.93V33a1.93,1.93,0,0,0-1.88-2h0a1.91,1.91,0,0,0-1.93,1.91v8h-5V26.38h5v1a3.72,3.72,0,0,1,1.57-.85,6.64,6.64,0,0,1,1.61-.2c2.72,0,5.62,1.77,5.62,5v9.59Z"/><g id="logo"><rect class="cls-4" x="22.46" y="27.16" width="3.85" height="13.2"/><circle class="cls-4" cx="24.39" cy="22.91" r="2.31"/><path class="cls-4" d="M35.39,27.06a3.48,3.48,0,0,0-2.27,2.05V27H29.28V40.36h3.84V32.9a2.49,2.49,0,0,1,2.51-2.48A2.52,2.52,0,0,1,38.07,33v7.41h3.85v-9C41.92,27.93,38.39,26.31,35.39,27.06Z"/></g></svg>