<svg id="Layer_1" data-name="Layer 1" xmlns="http://www.w3.org/2000/svg" xmlns:xlink="http://www.w3.org/1999/xlink" viewBox="0 0 64 64"><defs><style>.cls-1{fill:url(#Degradado_sin_nombre_101);}.cls-2{fill:url(#Degradado_sin_nombre_101-2);}.cls-3,.cls-4,.cls-5{fill:#fff;}.cls-3{opacity:0.12;}.cls-4{opacity:0.2;}</style><linearGradient id="Degradado_sin_nombre_101" x1="12" y1="31.79" x2="51.96" y2="31.79" gradientUnits="userSpaceOnUse"><stop offset="0" stop-color="#375bdf"/><stop offset="0.44" stop-color="#3775df"/><stop offset="1" stop-color="#37a7df"/></linearGradient><linearGradient id="Degradado_sin_nombre_101-2" x1="5.5" y1="32" x2="58.5" y2="32" xlink:href="#Degradado_sin_nombre_101"/></defs><circle class="cls-1" cx="31.98" cy="31.79" r="19.98"/><path class="cls-2" d="M32,58.5A26.5,26.5,0,1,1,58.5,32,26.53,26.53,0,0,1,32,58.5ZM32,8.44A23.56,23.56,0,1,0,55.56,32,23.59,23.59,0,0,0,32,8.44Z"/><path class="cls-3" d="M44.59,24.21c0-.12.09-.24.13-.37l.78-2.44-2.2,1.31a8.13,8.13,0,0,1-2.11.88,5.6,5.6,0,0,0-3.63-1.35A5.54,5.54,0,0,0,32,27.74a12.06,12.06,0,0,1-7.58-4.31l-.89-1.09-.7,1.22a5.55,5.55,0,0,0-.75,2.78,5.8,5.8,0,0,0,.28,1.77l-.32-.18v1.7a5.53,5.53,0,0,0,1.19,3.43l.46,1.43a5.51,5.51,0,0,0,2.72,3.22,8.18,8.18,0,0,1-4.18.59l-4.18-.49,3.54,2.27a14,14,0,0,0,7.53,2.2,13.84,13.84,0,0,0,14-14v-.12a10,10,0,0,0,2.1-2.3l1.87-2.79Z"/><path class="cls-4" d="M44.22,24.91c-.24.11-.49.2-.74.29a4.93,4.93,0,0,0,.78-1.51l.39-1.22-1.1.66a8.76,8.76,0,0,1-2.49,1,5.06,5.06,0,0,0-8.56,3.66,4.36,4.36,0,0,0,0,.51,12.5,12.5,0,0,1-8.47-4.55l-.44-.54-.35.6a5,5,0,0,0,.25,5.48l-.25-.13-.72-.4v.88a5.08,5.08,0,0,0,2,4.06l-.66-.13.25.78a5,5,0,0,0,3.44,3.32,8.71,8.71,0,0,1-5.42,1.12l-2.09-.25,1.78,1.14A13.48,13.48,0,0,0,42.63,28.31V28a9.76,9.76,0,0,0,2.19-2.34l.93-1.39Z"/><path class="cls-5" d="M44.41,25.35a8.93,8.93,0,0,1-2.62.72,4.57,4.57,0,0,0,2-2.53,8.86,8.86,0,0,1-2.9,1.11A4.58,4.58,0,0,0,33,27.78a4.42,4.42,0,0,0,.12,1,13,13,0,0,1-9.42-4.77,4.57,4.57,0,0,0,1.41,6.1A4.54,4.54,0,0,1,23,29.58v.05a4.58,4.58,0,0,0,3.67,4.49,4.78,4.78,0,0,1-1.21.16,4.12,4.12,0,0,1-.86-.09,4.59,4.59,0,0,0,4.27,3.18,9.18,9.18,0,0,1-5.67,2,9.66,9.66,0,0,1-1.09-.07,13,13,0,0,0,20-10.95c0-.2,0-.39,0-.59A9.17,9.17,0,0,0,44.41,25.35Z"/></svg>