<svg id="Layer_1" data-name="Layer 1" xmlns="http://www.w3.org/2000/svg" xmlns:xlink="http://www.w3.org/1999/xlink" viewBox="0 0 64 64"><defs><style>.cls-1{fill:url(#linear-gradient);}.cls-2{fill:url(#linear-gradient-2);}.cls-3,.cls-4{fill:#fff;}.cls-3{opacity:0.2;}</style><linearGradient id="linear-gradient" x1="12.12" y1="31.79" x2="52.08" y2="31.79" gradientUnits="userSpaceOnUse"><stop offset="0" stop-color="#bd1622"/><stop offset="1" stop-color="#fc1d1d"/></linearGradient><linearGradient id="linear-gradient-2" x1="5.62" y1="32" x2="58.62" y2="32" xlink:href="#linear-gradient"/></defs><circle class="cls-1" cx="32.1" cy="31.79" r="19.98"/><path class="cls-2" d="M32.12,58.5A26.5,26.5,0,1,1,58.62,32,26.53,26.53,0,0,1,32.12,58.5Zm0-50.06A23.56,23.56,0,1,0,55.67,32,23.59,23.59,0,0,0,32.12,8.44Z"/><path class="cls-3" d="M32,40.93c-.82,0-1.64,0-2.46,0l-5.7-.19a4.34,4.34,0,0,1-4.18-4.12l-.05-1c-.11-2.36-.11-4.75,0-7.11l.05-1a4.34,4.34,0,0,1,4.18-4.12l5.46-.18c.82,0,1.64,0,2.45,0,1,0,2,0,3,.06l5.48.21a4.3,4.3,0,0,1,4.16,4.13l0,1c.11,2.37.11,4.77,0,7.14l0,1a4.34,4.34,0,0,1-4.18,4.12l-5.7.19C33.64,40.91,32.82,40.93,32,40.93Zm-1.83-6.45L34.55,32l-4.38-2.6Z"/><path class="cls-3" d="M32,41.49c-.82,0-1.65,0-2.48,0l-5.69-.18a4.92,4.92,0,0,1-4.74-4.67l-.05-1c-.11-2.38-.11-4.79,0-7.16l.05-1a4.92,4.92,0,0,1,4.74-4.67l5.45-.17c.82,0,1.65,0,2.47,0,1,0,2,0,3,0l5.48.22a4.86,4.86,0,0,1,4.7,4.66l0,1c.12,2.39.12,4.81,0,7.19l-.05,1a4.92,4.92,0,0,1-4.73,4.67l-5.7.18C33.65,41.48,32.83,41.49,32,41.49Zm-1.27-8L33.42,32l-2.69-1.6Z"/><path id="logo" class="cls-4" d="M43.82,28.45l0-1a3.78,3.78,0,0,0-3.62-3.58l-5.48-.21c-1.79-.07-3.57-.08-5.36,0l-5.46.18a3.75,3.75,0,0,0-3.63,3.58l-.05,1q-.16,3.53,0,7.05l.05,1a3.77,3.77,0,0,0,3.63,3.59l5.7.18c1.63,0,3.25,0,4.88,0l5.7-.18a3.78,3.78,0,0,0,3.64-3.59l0-1C43.93,33.18,43.93,30.81,43.82,28.45Zm-14.22,7V28.39L35.67,32Z"/></svg>